# xmcd
#
# Track frame offsets:
#	150
#	12436
#	30748
#	46930
#	55253
#	65507
#	77267
#	88480
#	102139
#	117627
#	132544
#	148250
#	164087
#	181620
#	201092
#	215050
#	228765
#	244167
#	258033
#	267770
#
# Disc length: 3692 seconds
#
# Revision: 0
# Processed by: cddbd v1.5.1PL0 Copyright (c) Steve Scherf et al.
# Submitted via: audiograbber 1.83.01
#
DISCID=200e6a14
DTITLE=Various Artist - Starogradski Biseri 4
DYEAR=2004
DGENRE=
TTITLE0=Ti Bi Hteo Pesmom Da Ti Kazem
TTITLE1=Sto Se Bore Misli Moje
TTITLE2=Lepa Janja
TTITLE3=Ajde Kato, Ajde zlato
TTITLE4=Da Smo Se Ranije Sreli
TTITLE5=Na Te Mislim
TTITLE6=Kad Bi Ove Ruze Male
TTITLE7=Volelo Se Dvoje Mladih
TTITLE8=Zapevala Sojka Ptica
TTITLE9=Ne Klepeci nanulama
TTITLE10=Pogledaj Me Nevernice
TTITLE11=Fijakerist
TTITLE12=Devojka na Studencu
TTITLE13=Blaguno Dejce
TTITLE14=Sinoc kad Je Pao Mrak
TTITLE15=Svilen Konac
TTITLE16=Pijem Zbog Tebe
TTITLE17=Oj Javore, Javore
TTITLE18=Somborske Ruze
TTITLE19=Razbila se Casa
EXTD=
EXTT0=
EXTT1=
EXTT2=
EXTT3=
EXTT4=
EXTT5=
EXTT6=
EXTT7=
EXTT8=
EXTT9=
EXTT10=
EXTT11=
EXTT12=
EXTT13=
EXTT14=
EXTT15=
EXTT16=
EXTT17=
EXTT18=
EXTT19=
PLAYORDER=
